<svg xmlns="http://www.w3.org/2000/svg" width="115.748" height="92.584" viewBox="0 0 115.748 92.584">
  <path id="Icon_awesome-code" data-name="Icon awesome-code" d="M50.44,92.5,39.408,89.3A2.173,2.173,0,0,1,37.925,86.6L62.61,1.569A2.173,2.173,0,0,1,65.3.086l11.031,3.2a2.173,2.173,0,0,1,1.483,2.695L53.134,91.014A2.167,2.167,0,0,1,50.44,92.5ZM29.824,72.206l7.867-8.391a2.17,2.17,0,0,0-.145-3.11L21.161,46.292,37.546,31.878a2.155,2.155,0,0,0,.145-3.11l-7.867-8.391a2.172,2.172,0,0,0-3.074-.09L.69,44.7a2.156,2.156,0,0,0,0,3.165L26.749,72.3a2.156,2.156,0,0,0,3.074-.09ZM89,72.315l26.059-24.432a2.156,2.156,0,0,0,0-3.165L89,20.268a2.19,2.19,0,0,0-3.074.09L78.054,28.75a2.17,2.17,0,0,0,.145,3.11L94.583,46.292,78.2,60.7a2.155,2.155,0,0,0-.145,3.11l7.867,8.391A2.173,2.173,0,0,0,89,72.315Z" transform="translate(0.002 -0.003)"/>
</svg>
