<svg xmlns="http://www.w3.org/2000/svg" width="109.58" height="76.733" viewBox="0 0 109.58 76.733">
  <path id="Icon_metro-gamepad" data-name="Icon metro-gamepad" d="M79.076,6.927c-4.707,0-13.849,6.649-21.608,6.649S40.014,6.927,35.859,6.927C7.326,6.927-9.02,83.661,12.312,83.661c18.008,0,20.432-22.44,45.085-22.44,19.946,0,31.651,22.167,44.949,22.167,21.329,0,5.266-76.461-23.271-76.461ZM34.193,50.144a14.96,14.96,0,1,1,14.96-14.96A14.963,14.963,0,0,1,34.193,50.144ZM73.88,41.833A3.324,3.324,0,1,1,77.2,38.509,3.321,3.321,0,0,1,73.88,41.833Zm10.183,9.973a3.324,3.324,0,1,1,3.324-3.324A3.321,3.321,0,0,1,84.062,51.807Zm0-19.946a3.324,3.324,0,1,1,3.324-3.324A3.321,3.321,0,0,1,84.062,31.86Zm9.973,9.973a3.324,3.324,0,1,1,3.324-3.324A3.321,3.321,0,0,1,94.035,41.833ZM34.193,26.874A8.311,8.311,0,1,0,42.5,35.185,8.312,8.312,0,0,0,34.193,26.874Z" transform="translate(-2.572 -6.927)"/>
</svg>
